<svg xmlns="http://www.w3.org/2000/svg" viewBox="0 0 50 50" height="50px" width="50px"><title>aboutus</title><g id="Layer_2" data-name="Layer 2"><g id="Layer_1-2" data-name="Layer 1"><path d="M25,50A25,25,0,1,1,50,25,25,25,0,0,1,25,50ZM25,4A21,21,0,1,0,46,25,21,21,0,0,0,25,4Z"/><path d="M24.76,40.05l-.61-1.68c0-.13-4.6-12.69-6.27-17.14a7,7,0,0,1,.91-6.53A8.11,8.11,0,0,1,25,11.05a7.76,7.76,0,0,1,5.92,3.37,7.49,7.49,0,0,1,1.2,6.77c-1.56,5-6.45,16.71-6.65,17.21ZM25,12.45a6.76,6.76,0,0,0-5,3.05,5.6,5.6,0,0,0-.75,5.23c1.3,3.47,4.35,11.87,5.66,15.47,1.43-3.5,4.73-11.62,5.92-15.43a6.17,6.17,0,0,0-1-5.52A6.48,6.48,0,0,0,25,12.45Z"/><path d="M25,24a5,5,0,1,1,5-5A5,5,0,0,1,25,24Zm0-8.56A3.56,3.56,0,1,0,28.57,19,3.56,3.56,0,0,0,25,15.39Z"/></g></g></svg>