<svg xmlns="http://www.w3.org/2000/svg" viewBox="0 0 50 50" height="50px" width="50px"><title>books_2.svg</title><g id="Layer_2" data-name="Layer 2"><g id="Layer_1-2" data-name="Layer 1"><path d="M25,50A25,25,0,1,1,50,25,25,25,0,0,1,25,50ZM25,4A21,21,0,1,0,46,25,21,21,0,0,0,25,4Z"/><path d="M34.17,28.59H8l.5-1A6.12,6.12,0,0,0,9,25.09a6.18,6.18,0,0,0-.52-2.46L8,21.6H34.17l.18.12a4.3,4.3,0,0,1,0,6.76Zm-24-1.44H33.71a2.77,2.77,0,0,0,.86-2.06A2.81,2.81,0,0,0,33.71,23H10.13a7.85,7.85,0,0,1,.29,2.06A7.72,7.72,0,0,1,10.13,27.15Z"/><path d="M37.34,21.77H12.29l-.18-.12a4.32,4.32,0,0,1,0-6.76l.18-.12H38.48l-.51,1a6.19,6.19,0,0,0,0,4.92l.5,1ZM12.75,20.33H36.33A7.72,7.72,0,0,1,36,18.27a7.85,7.85,0,0,1,.29-2.06H12.75a2.9,2.9,0,0,0,0,4.12Z"/><path d="M37.27,35.63H12.22L12,35.51a4.32,4.32,0,0,1,0-6.76l.18-.12H38.41l-.51,1a6.19,6.19,0,0,0,0,4.92l.5,1ZM12.68,34.19H36.26a7.46,7.46,0,0,1,0-4.12H12.68a2.9,2.9,0,0,0,0,4.12Z"/></g></g></svg>