<svg xmlns="http://www.w3.org/2000/svg" viewBox="0 0 50 50" height="50px" width="50px"><title>events_2</title><g id="Layer_2" data-name="Layer 2"><g id="Layer_1-2" data-name="Layer 1"><path d="M25,50A25,25,0,1,1,50,25,25,25,0,0,1,25,50ZM25,4A21,21,0,1,0,46,25,21,21,0,0,0,25,4Z"/><path d="M15.54,37.89l-2.76-5.57.51-.34a1.51,1.51,0,0,0-.83-2.77,1.47,1.47,0,0,0-.5.09l-.58.21-2.7-5.43L32.82,11.89l2.64,5.31-.65.3A1.64,1.64,0,0,0,33.9,19a1.6,1.6,0,0,0,1.6,1.6,1.59,1.59,0,0,0,.74-.18l.63-.33,2.81,5.66Zm-1-5.15L16.17,36,37.81,25.08l-1.59-3.2a2.9,2.9,0,0,1-.72.09,3,3,0,0,1-1.89-5.35L32.2,13.78,10.56,24.7l1.55,3.13a2,2,0,0,1,.35,0,2.93,2.93,0,0,1,2.09,4.94Z"/><path d="M18.73,32.79l-4.2-8.46,14.79-7.54,4.21,8.46Zm-2.37-7.85,3,6,12.36-6.3-3-6Z"/></g></g></svg>