<svg xmlns="http://www.w3.org/2000/svg" viewBox="0 0 50 50" height="50px" width="50px"><title>friends_1</title><g id="Layer_2" data-name="Layer 2"><g id="Layer_1-2" data-name="Layer 1"><path d="M25,50A25,25,0,1,1,50,25,25,25,0,0,1,25,50ZM25,4A21,21,0,1,0,46,25,21,21,0,0,0,25,4Z"/><path d="M31.85,35.69H17V29.57h3.38v-10h-3v-5.9h10.2V16a13.63,13.63,0,0,1,1.46-1.11c1.8-1.19,5.21-1.21,5.36-1.21H35v7.2l-.53,0c-.89.06-3.43.43-4.52,1.42-1.37,1.26-1.66,2-1.7,2.93s0,3.15,0,4.25h3.57Zm-13.71-1.2H30.72V30.73H27.2l0-.59c0-.15-.09-3.79-.05-4.91.07-1.43.63-2.46,2.1-3.79,1.24-1.13,3.6-1.53,4.65-1.65V14.91a9.73,9.73,0,0,0-4.2,1,8.65,8.65,0,0,0-2.16,1.87l-1,1.4v-4.3H18.56v3.5h3V30.77H18.14Z"/></g></g></svg>