<svg xmlns="http://www.w3.org/2000/svg" viewBox="0 0 50 50" height="50px" width="50px"><title>home_2</title><g id="Layer_2" data-name="Layer 2"><g id="Layer_1-2" data-name="Layer 1"><path d="M25,50A25,25,0,1,1,50,25,25,25,0,0,1,25,50ZM25,4A21,21,0,1,0,46,25,21,21,0,0,0,25,4Z"/><path d="M36.23,35.28h-22v-16h22ZM15.65,33.82H34.82V20.74H15.65Z"/><path d="M37.75,21.2h-25V19.75L25,11.2l12.73,8.55ZM15.31,19.74H35.13L25,13Z"/><polygon points="23.54 34.39 22.2 34.39 22.2 25.39 28.2 25.39 28.2 34.39 26.86 34.39 26.86 26.83 23.55 26.83 23.54 34.39"/></g></g></svg>