<svg xmlns="http://www.w3.org/2000/svg" viewBox="0 0 50 50" height="51px" width="51px"><title>Asset 1</title><g id="Layer_2" data-name="Layer 2"><g id="Layer_1-2" data-name="Layer 1"><path d="M25,50A25,25,0,1,1,50,25,25,25,0,0,1,25,50ZM25,4A21,21,0,1,0,46,25,21,21,0,0,0,25,4Z"/><path d="M35.73,34.77h-21v-15h21Zm-20-1h19v-13h-19Z"/><path d="M37.24,20.79h-24V19.73L25,11.79l12.21,7.93Zm-22.34-1H35.56L25,13Z"/><polygon points="23.22 34.47 22.2 34.47 22.2 25.47 28.2 25.47 28.2 34.47 27.17 34.47 27.17 26.52 23.23 26.52 23.22 34.47"/></g></g></svg>