<svg xmlns="http://www.w3.org/2000/svg" viewBox="0 0 480 366" width="100px"><defs><style>.cls-1{fill:#32533a;}.cls-2,.cls-3,.cls-4{fill:#fff;}.cls-2{opacity:0.98;}.cls-4{opacity:0.99;}</style></defs><title>Asset 2</title><g id="Layer_2" data-name="Layer 2"><g id="Layer_1-2" data-name="Layer 1"><ellipse class="cls-1" cx="240" cy="183" rx="240" ry="183"/><path class="cls-2" d="M61.5,141.5c1-1,10-4,18,1C87,148,84,162,84,164c-1,0-4-1-5-1-2,1-12.5,7.5-12.5,8.5,1,2,7,4,9,8s3,16,5,20c1.84,3.69,5,9,8,11s8.5,5.5,10,5c2.12-.71,8.5-7.5,10.5-11.5-.5-3.5-8.5-3.5-12.5-8.5-5.59-7-4-10-5.5-16.5-1.42-6.16-4.5-9.5-4.5-11.5s10.58-5.69,12-9c1.5-3.5-1-20-5-26-5.11-7.67-8-7.91-14-9C68.5,121.5,62,137,62,137V124c0-1-17,4-17,4l-.5,86.5s15,0,15.5-1.5C61.12,209.65,60.5,142.5,61.5,141.5Z"/><path class="cls-3" d="M163,162c-7-17-25-21-25-21l-19,14s-10,6-10,27,15,33,31,35c5,0,24-14,26-23S170,179,163,162Zm-13.42,38.44a2.71,2.71,0,0,1-3.21,2.11c-5.19-1.06-16.56-4.4-20.37-13.55-5-12-.24-28.14,1-30,2-3,10-5,20,6C155.13,173.94,151,193.45,149.58,200.44Z"/><path class="cls-3" d="M129,121c-1,0-7.12,13.12-7.12,13.12a2.25,2.25,0,0,0,.92,2.91s6.2,4,7.2,3,8-13,7-15S130,121,129,121Z"/><path class="cls-3" d="M152,122c-1,0-7.12,13.12-7.12,13.12a2.25,2.25,0,0,0,.92,2.91s6.2,4,7.2,3,8-13,7-15S153,122,152,122Z"/><path class="cls-4" d="M177,214c-1.5-3.5-.5-48.5-1.5-49.5s-4-1-5-3c1-2,19.5-15.5,19.5-15.5,2-1,.5,7.5,1,12,.11,1,8-11,10-12s7-1,11,0,11,9,11,16c0,5-.5,32.5.5,35.5,1,2,8.5,1.5,8.5,2.5,0,3-20.5,14.5-24.5,14.5-3-5-1-48-2-51s-4-4-7-4-6,1-7,3S193,209,193,214A84.77,84.77,0,0,1,177,214Z"/><path class="cls-3" d="M335.5,200.5c-.5-.5-4,1.11-9,0-9-2-18-16-18-18s26.1-22,26-25c-.14-4-4-7-9-10s-11-4-15-2c-3,1-16,12-18,18S290,178,291,185c2.5,14.5,20.5,29.5,30.5,28.5C326,212,336,201,335.5,200.5Zm-28-42c0-1,9.73,1.1,11,4s-8.64,9.76-11,10C305.51,172.7,307.5,159.5,307.5,158.5Z"/><path class="cls-3" d="M341,115c0,2-1,83,1,88s12,12,15,12,15-11,13-13-9,2-11-4,0-82-1-83S341,113.59,341,115Z"/><path class="cls-3" d="M371,115c0,2-1,83,1,88s12,12,15,12,15-11,13-13-9,2-11-4,0-82-1-83S371,113.59,371,115Z"/><path class="cls-3" d="M411.5,189.5C407.67,191,401,198,401,200c0,0,2.5.5,7.5,3.5,5.49,3.29,11,11,12,11S442,206,444,203s4-11,2-19-6-13-11-15-10,9-13,9-4.5-.5-6.5-7.5c-3-9,2-14,5-14,5,0,13.1,9.63,15,9,3-1,7-7,8-8,1.41-1.41-6.5-8.5-9.5-10.5s-9-3.27-12-3c-5.5.5-21,15-22,18s-1,11,2,16,8.84,9,12,9c3,0,5.54-5.11,7.5-5.5,2.5-.5,6.5.5,8.5,8.5s0,13-2,12-9.28-10.09-16.5-12.5"/><path class="cls-3" d="M108,282h-5s1-31,0-33-2-7-11-7-12,11-12,13,5-3.07,10-3c5,1,3,7,3,12,0,2-18,12-18,14s8,14,11,15c3,0,5-4,8-4s3,2,5,2S110,282,108,282Zm-15,1a2.15,2.15,0,0,1-2,2c-1,0-5-4-5-8s5-6,6-6,1,2,1,1Z"/><path class="cls-3" d="M300,282c-2,0-5.5,1.5-6.5-.5-2-2,.5-29.5-.5-31.5s-4.5-8.5-11.5-8.5c-5,0-12,12-11,13,1.58,1.58,6-3,10-2,4,2,2.5,10.5,2,13-.31,1.55-17,8-17,12,0,5,6.5,13.5,9.5,14.5,3,0,6.32-6.34,9-5,2,1,5.5,4.5,7,5C292.9,292.63,302,282,300,282Zm-19,0c0,1-1.5,2-2.5,2s-5.66-4.05-5-8c.5-3,6.29-6.21,7-5.5C282,272,281,281.09,281,282Z"/><path class="cls-4" d="M237,214c-1.5-3.5-.5-49.5-1.5-50.5s-6-1-7-3c1-2,21.5-15.5,21.5-15.5,2-1,.5,7.5,1,12,.11,1,8.5-9.5,10.5-10.5a15.53,15.53,0,0,1,10-1c4,1,11,9,11,16,0,5,0,32,1,35,1,2,8,0,8,1,0,2.7-16.49,13.38-21.5,15.5-.58.25-2.58,0-2.64-.63-.86-8.89-.91-47-1.86-49.87-1-3-4-4-7-4s-6,1-7,3,1.25,42,1.48,50.42a1.14,1.14,0,0,1-1,1.17C246.62,213.5,240.28,214.47,237,214Z"/><path class="cls-4" d="M110.89,290.65c-1-2.47-.34-34.14-1-34.85s-1.87-.8-3.37-2.11C107.17,252.28,120,242,120,242c1.35-.7.66,3.83,1,7,.07.7,4.74-3.37,6-4a12.52,12.52,0,0,1,8-1c2.7.7,6.93,5.11,6.93,10,0,3.52-.34,22.88.33,25,.68,1.41,5.74,1.06,5.74,1.76,0,2.11-13.83,10.21-16.53,10.21-2-3.52-.8-32.89-1.47-35s-3-3-5-3-3.33,1.59-4,3,.68,31.13.68,34.65A55.09,55.09,0,0,1,110.89,290.65Z"/><path class="cls-3" d="M160,255v29c0,2.12,5.5-2.5,7-1s-7.5,9.5-11,9a7.43,7.43,0,0,1-6-6c-.5-2.5,0-28-.5-30.5s-5-2-4.5-4.5,6.5-3.5,8.5-6.5,2-11,5.5-11.5c3-.42,1,12.42,1,14,0,2,8-1,8,4C168,257,160,252,160,255Z"/><path class="cls-3" d="M398.5,254.5c0,2.55-.5,27.5,1,29,1.8,1.8,4.5-1.5,6,0s-7,9-10.5,8.5a7.43,7.43,0,0,1-6-6c-.5-2.5,0-29-.5-31.5s-5.5-1.5-5-4c0-2,5-3,8-6,2.55-2.55,3.45-10,6-10,3,0,1.5,10.92,1.5,12.5,0,2,8.5-.5,8.5,3.5S398.5,251.5,398.5,254.5Z"/><path class="cls-3" d="M173.45,255a.55.55,0,0,1,.55.55c0,4.22,0,30.55.5,31.95.5,2.5,3.5,4.5,6,5,4.5-.5,10-8,9.5-8.5s-4,0-5-1c-.5-.5,0-28,0-31-2-4-4.83-5.75-6.38-7.37a.88.88,0,0,0-1.06-.15c-4.41,2.33-9.86,9.22-8.56,10.52Z"/><path class="cls-3" d="M178.5,228.5c-.66-.13-6.5,6.5-6.5,7.5s3,3,4,4c.77-.44,6.94-7.23,6.5-8.5S179.16,228.63,178.5,228.5Z"/><path class="cls-3" d="M333.45,253a.55.55,0,0,1,.55.55c0,4.22,0,30.55.5,31.95.5,2.5,5,6,7.5,6.5,4.5-.5,10-8,9-10-.32-.63-5,0-6-1-.5-.5,0-27,0-30-1-4-4.83-6.75-6.38-8.37a.88.88,0,0,0-1.06-.15c-4.41,2.33-9.86,9.22-8.56,10.52Z"/><path class="cls-3" d="M338.5,226.5c-.66-.13-6.5,6.5-6.5,7.5s3,3,4,4c.77-.44,6.94-7.23,6.5-8.5S339.16,226.63,338.5,226.5Z"/><path class="cls-3" d="M214.5,265.5c.5-1.5,13.25-11.75,6.5-21.5-4.5-6.5-14.5.5-16.5,1.5-.89.45.44-17.56,0-18s-10.5.5-10.5.5v63.72a.29.29,0,0,0,.28.28h8.9a.82.82,0,0,0,.82-.82V271.83a.28.28,0,0,1,.5-.16l14.84,19.62a.27.27,0,0,0,.38.06l8.53-5.68a.28.28,0,0,0,.07-.4C226.64,283.12,214,266.9,214.5,265.5Zm-10,1c-.5-.5-.5-14.5,0-15s5.48-3.49,8,1c0,0,0,0,0,.05C216,261,205,267,204.5,266.5Z"/><path class="cls-3" d="M227,251a23.11,23.11,0,0,0,5,3v28s3,9,14.5,10.5c3-3,.5-.5,5.5-4.5,4-3.22,5-3,6.5-4.5,1-2,2-3,5.5-17.5,1.5-14.5-7-23-7-23l-9.5,7.5S254,257,254,262c0,3,.5,20.5-5.5,20.5-3,0-5-6-5-6v-26s-5-7-6-7C234.5,244.5,228.5,249.5,227,251Z"/><path class="cls-3" d="M299,252c.5.5,4.5.5,5,1,1.5,1.5.5,29.5,1,32s4.5,6.5,6,7,11.5-9.5,10-11c-.5-.5-3.5,2.5-5,1s-1.5-27.5-.5-28.5,3.5,2.5,5,4c2.5-.5,7-8,7-8l-7-7s-4,5-5,6c-1-1-7-6-8-6S298.5,251.5,299,252Z"/><path class="cls-3" d="M244,46c-5.14-9.86-15.5-13.5-24.5-12.5-10,1.11-20,11.43-20,12-1,1-1.81,2.89,0,4,3,2,9-6,14-9s17.45-2.08,24,8c2,3,3,14-2,20-6,7.25-15,7-16,7-1-1-4.41-13.56-13-12-1.74.32-3.71,2.76-4,5-.89,6.85,12.85,11,12,11,0,0-4,18.89-20.84,16a1.58,1.58,0,0,1-.31-.09c-22.28-8.62-37.74-24.16-51.85-29.94-3.87-1.59-7.92-2.92-12-2-8.34,1.89-18,8-19,17-.88,8.77,2.09,16,10.93,19a12.91,12.91,0,0,0,5.87.66c4.33-.61,7.65-3.4,8.28-7.86a6.89,6.89,0,0,0-2.26-6.18c-6.34-5.44-12.18,4.24-3.82,7.38-3.37,2.4-15.48,4.31-12.44-13.74a10,10,0,0,1,2.3-5c4.92-5.57,13.14-5.3,13.14-5.3,17.5,1.5,43.07,34.62,64,32,24-3,22-22,22-22-.25.2,9.5,4.5,22-7C244.5,69.5,249,55.56,244,46ZM214,75c.11,0-6-2-7-4s2-4,4-3S214.51,75.6,214,75Z"/><path class="cls-3" d="M235.5,114.5c5.62,9.59,13,10.5,20,11,14,1,22.86-14,21-15-4-2-16,17-30.83,4.54a9,9,0,0,1-3.33-4c-4.79-9.9-1.77-15.27,1.17-20.54,4.6-8.24,14.63-7.74,15.63-7.79,1.05.95,5.07,13.32,13.58,11.35,1.72-.4,3.57-2.94,3.75-5.2.55-6.89-13.38-10.35-12.53-10.39,0,0,1.56-17.94,23.56-16.94,22,6,34,22,47,31,6.25,3,11,5,19,4s15-9,16-16c1.84-12.87-7-17-9-18-1.78-.89-7.11-1.63-9-1-3,1-6,3-6,7,0,3,2,7,6,7,3.16,0,8-6,0-8,4-4,14,2,13,10-1.12,9-5,13-13,14-16,1-43-42-71-35-19.33,4.92-20.56,22.14-20.56,22.14.24-.22-9.66-3-21.57,9.08C232.77,93.37,230.05,105.2,235.5,114.5Zm29.16-31.59c-.11,0,6.09,1.7,7.19,3.65s-1.8,4.09-3.85,3.19S264.13,82.34,264.66,82.91Z"/><path class="cls-3" d="M385.5,282.5c-2,0-6,0-7-2-2-2,.5-29.5-.5-31.5s-4.51-8.91-11.5-8.5c-8.5.5-12,11-11,12,1.58,1.58,6-3,10-2C369,252,367,261,367,264c0,1.58-15.5,9.5-15.5,12.5,0,6.08,7,13,9,14,3,0,6.32-6.34,9-5,2,1,4.5,5.5,6,6C377.4,292.13,387.5,282.5,385.5,282.5Zm-17-1c0,1-2,3-3,3S359.34,279,360,275c.5-3,6.79-5.21,7.5-4.5C369,272,368.5,280.59,368.5,281.5Z"/></g></g></svg>