<svg xmlns="http://www.w3.org/2000/svg" viewBox="0 0 50 50" height="50px" width="50px"><title>misc</title><g id="Layer_2" data-name="Layer 2"><g id="Layer_1-2" data-name="Layer 1"><path d="M25,50A25,25,0,1,1,50,25,25,25,0,0,1,25,50ZM25,4A21,21,0,1,0,46,25,21,21,0,0,0,25,4Z"/><path d="M34.74,38.76H15.47L15.24,23l-2,.9L9.58,17.32l7-3.85,3.79-.54.14.63A4.55,4.55,0,0,0,25,16.89c3.86-.12,4.45-3.16,4.47-3.3l.12-.66.67.09,3.14.45,7,3.85-3.67,6.56-2-.89ZM16.86,37.35H33.33l0-16.54,2.78,1.26,2.35-4.21-5.51-3-2.29-.32a5.72,5.72,0,0,1-5.45,3.78h-.43a6,6,0,0,1-5.45-3.79L17,14.82l-5.52,3,2.35,4.21,2.76-1.26Z"/><path d="M24.89,15.05a19.71,19.71,0,0,1-5.22-.72L20.09,13a17.9,17.9,0,0,0,4.8.66Z"/><path d="M24.91,15.05V13.64a17.9,17.9,0,0,0,4.8-.66l.42,1.35A19.8,19.8,0,0,1,24.91,15.05Z"/></g></g></svg>