<svg xmlns="http://www.w3.org/2000/svg" viewBox="0 0 50 50" height="50px" width="50px"><defs><style>.cls-1{fill:#fcfbfa;}</style></defs><title>publication</title><g id="Layer_2" data-name="Layer 2"><g id="Layer_1-2" data-name="Layer 1"><path d="M25,50A25,25,0,1,1,50,25,25,25,0,0,1,25,50ZM25,4A21,21,0,1,0,46,25,21,21,0,0,0,25,4Z"/><polygon points="35.67 32.02 10.07 32.02 10.07 12.64 12.42 12.64 12.42 14.05 11.48 14.05 11.48 30.61 34.27 30.61 34.27 14.05 33.37 14.05 33.37 12.64 35.67 12.64 35.67 32.02"/><path d="M34.07,31.55l-1-.61a10.76,10.76,0,0,0-4.77-.88,12.41,12.41,0,0,0-5,.9l-.4.2-.35-.27s-1.19-.83-4.56-.83a11.72,11.72,0,0,0-5.14.89l-1,.57V12l.31-.21c.17-.11,1.75-1.1,5.72-1.1a11.76,11.76,0,0,1,5.15.88,13,13,0,0,1,5.19-.88c3.83,0,5.58,1,5.65,1.08l.33.21ZM17.9,28.65a11.07,11.07,0,0,1,5.05.9,14.36,14.36,0,0,1,5.3-.9,14.06,14.06,0,0,1,4.42.64V12.81a12.14,12.14,0,0,0-4.58-.72,10.26,10.26,0,0,0-4.85.87l-.41.25-.39-.29h0s-1.2-.83-4.69-.83a12.09,12.09,0,0,0-4.63.71V29.3A15.79,15.79,0,0,1,17.9,28.65Z"/><rect x="22.37" y="12.36" width="1" height="17.97"/><circle class="cls-1" cx="31.56" cy="30.21" r="9.24"/><path d="M31.56,40.15a9.94,9.94,0,1,1,9.94-9.94A10,10,0,0,1,31.56,40.15Zm0-18.47a8.53,8.53,0,1,0,8.53,8.53A8.54,8.54,0,0,0,31.56,21.68Z"/><path d="M31.48,33.87a3.74,3.74,0,1,1,3.74-3.74A3.75,3.75,0,0,1,31.48,33.87Zm0-6.06a2.33,2.33,0,1,0,2.33,2.32A2.32,2.32,0,0,0,31.48,27.81Z"/><path d="M31.48,31.47a1.19,1.19,0,1,1,1.19-1.19A1.19,1.19,0,0,1,31.48,31.47Zm0-1.4a.21.21,0,0,0-.21.21.21.21,0,0,0,.21.22.22.22,0,0,0,.22-.22A.21.21,0,0,0,31.48,30.07Z"/></g></g></svg>